<?xml version="1.0" standalone="no"?>
<svg version="1.0" xmlns="http://www.w3.org/2000/svg"
 width="600.000000pt" height="600.000000pt" viewBox="0 0 600.000000 600.000000"
 preserveAspectRatio="xMidYMid meet">
<metadata>
Created by potrace 1.15, written by Peter Selinger 2001-2017
</metadata>
<g transform="translate(0.000000,600.000000) scale(0.100000,-0.100000)"
fill="#000000" stroke="none">
<path d="M3108 5982 c-26 -17 -1919 -2296 -1940 -2336 -6 -10 -11 -40 -11 -66
-1 -63 27 -109 83 -137 44 -23 46 -23 542 -23 l498 0 0 -119 c0 -314 -37 -752
-86 -1020 -156 -856 -543 -1482 -1172 -1893 -61 -40 -132 -85 -157 -100 -48
-29 -85 -88 -85 -138 0 -42 37 -108 72 -131 31 -19 43 -20 198 -16 569 18
1220 263 1740 657 150 113 423 381 541 530 255 322 469 744 588 1155 48 169
82 318 110 485 23 141 51 395 51 467 0 26 3 65 6 86 l7 37 491 0 c302 0 505 4
528 10 83 23 130 130 92 208 -22 44 -1877 2296 -1924 2335 -26 22 -41 27 -88
27 -38 0 -66 -6 -84 -18z m866 -1332 l755 -915 -427 -5 c-424 -5 -427 -5 -459
-28 -49 -35 -61 -84 -67 -277 -23 -675 -195 -1289 -497 -1774 -359 -576 -916
-1003 -1589 -1216 -47 -14 -97 -31 -113 -35 -20 -7 1 19 84 103 352 353 599
785 749 1309 120 422 180 938 180 1573 0 253 -5 276 -63 319 -27 20 -43 21
-456 26 l-428 5 771 932 c725 876 772 931 788 915 9 -9 357 -429 772 -932z"/>
</g>
</svg>
