<?xml version="1.0" encoding="UTF-8"?>
<svg xmlns="http://www.w3.org/2000/svg" xmlns:xlink="http://www.w3.org/1999/xlink" width="30pt" height="30pt" viewBox="0 0 30 30" version="1.1">
<g id="surface1">
<path style=" stroke:none;fill-rule:nonzero;fill:#868e96;fill-opacity:1;" d="M 1.085938 9.214844 L 28.914062 9.214844 C 29.511719 9.214844 29.996094 8.730469 29.996094 8.132812 L 29.996094 2.347656 C 29.996094 1.75 29.511719 1.265625 28.914062 1.265625 L 1.085938 1.265625 C 0.484375 1.265625 0 1.75 0 2.347656 L 0 8.132812 C 0 8.730469 0.484375 9.214844 1.085938 9.214844 Z M 19.710938 4.335938 L 27.347656 4.335938 C 27.847656 4.335938 28.25 4.742188 28.25 5.242188 C 28.25 5.738281 27.847656 6.144531 27.347656 6.144531 L 19.710938 6.144531 C 19.210938 6.144531 18.808594 5.738281 18.808594 5.242188 C 18.808594 4.742188 19.210938 4.335938 19.710938 4.335938 Z M 19.710938 4.335938 "/>
<path style=" stroke:none;fill-rule:nonzero;fill:#868e96;fill-opacity:1;" d="M 1.085938 18.972656 L 28.914062 18.972656 C 29.511719 18.972656 29.996094 18.488281 29.996094 17.890625 L 29.996094 12.109375 C 29.996094 11.507812 29.511719 11.023438 28.914062 11.023438 L 1.085938 11.023438 C 0.484375 11.023438 0 11.507812 0 12.109375 L 0 17.890625 C 0 18.488281 0.484375 18.972656 1.085938 18.972656 Z M 11.757812 14.09375 L 27.347656 14.09375 C 27.847656 14.09375 28.25 14.5 28.25 15 C 28.25 15.496094 27.847656 15.902344 27.347656 15.902344 L 11.757812 15.902344 C 11.261719 15.902344 10.855469 15.496094 10.855469 15 C 10.855469 14.5 11.261719 14.09375 11.757812 14.09375 Z M 11.757812 14.09375 "/>
<path style=" stroke:none;fill-rule:nonzero;fill:#868e96;fill-opacity:1;" d="M 1.085938 28.734375 L 28.914062 28.734375 C 29.511719 28.734375 29.996094 28.246094 29.996094 27.648438 L 29.996094 21.867188 C 29.996094 21.265625 29.511719 20.78125 28.914062 20.78125 L 1.085938 20.78125 C 0.484375 20.78125 0 21.265625 0 21.867188 L 0 27.648438 C 0 28.246094 0.484375 28.734375 1.085938 28.734375 Z M 16.457031 23.855469 L 27.347656 23.855469 C 27.847656 23.855469 28.25 24.257812 28.25 24.757812 C 28.25 25.257812 27.847656 25.660156 27.347656 25.660156 L 16.457031 25.660156 C 15.957031 25.660156 15.554688 25.257812 15.554688 24.757812 C 15.554688 24.257812 15.957031 23.855469 16.457031 23.855469 Z M 16.457031 23.855469 "/>
</g>
</svg>
