<?xml version="1.0" encoding="UTF-8"?>
<svg xmlns="http://www.w3.org/2000/svg" xmlns:xlink="http://www.w3.org/1999/xlink" width="30pt" height="30pt" viewBox="0 0 30 30" version="1.1">
<g id="surface1">
<path style=" stroke:none;fill-rule:nonzero;fill:#868e96;fill-opacity:1;" d="M 29.1875 25.210938 L 22.304688 18.324219 C 21.277344 19.917969 19.917969 21.277344 18.324219 22.304688 L 25.210938 29.1875 C 26.308594 30.289062 28.089844 30.289062 29.1875 29.1875 C 30.289062 28.089844 30.289062 26.308594 29.1875 25.210938 Z M 29.1875 25.210938 "/>
<path style=" stroke:none;fill-rule:nonzero;fill:#868e96;fill-opacity:1;" d="M 22.511719 11.253906 C 22.511719 5.039062 17.46875 0 11.253906 0 C 5.039062 0 0 5.039062 0 11.253906 C 0 17.46875 5.039062 22.507812 11.253906 22.507812 C 17.46875 22.507812 22.511719 17.46875 22.511719 11.253906 Z M 11.253906 19.695312 C 6.601562 19.695312 2.8125 15.910156 2.8125 11.253906 C 2.8125 6.601562 6.601562 2.8125 11.253906 2.8125 C 15.910156 2.8125 19.695312 6.601562 19.695312 11.253906 C 19.695312 15.910156 15.910156 19.695312 11.253906 19.695312 Z M 11.253906 19.695312 "/>
<path style=" stroke:none;fill-rule:nonzero;fill:#868e96;fill-opacity:1;" d="M 4.691406 11.253906 L 6.566406 11.253906 C 6.566406 8.667969 8.667969 6.566406 11.253906 6.566406 L 11.253906 4.691406 C 7.636719 4.691406 4.691406 7.636719 4.691406 11.253906 Z M 4.691406 11.253906 "/>
</g>
</svg>
